# This file uses meters as units for non-parametric coordinates.

mtllib Antenna.mtl
g default
v 0.000000 14.293549 -8.600037
v 7.447845 14.293549 -4.299988
v 7.447845 14.293549 4.300018
v 0.000000 14.293549 8.600006
v 0.000000 81.538605 0.000000
v 0.000000 52.418335 -8.600037
v 7.447845 52.418335 -4.299988
v 7.447845 52.418335 4.300018
v 0.000000 52.418335 8.600006
v -7.447845 14.293549 -4.299988
v -7.447845 14.293549 4.300018
v -7.447845 52.418335 -4.299988
v -7.447845 52.418335 4.300018
vt 0.871940 0.565203
vt 0.871940 1.000000
vt 0.871940 0.561814
vt 0.871940 0.565984
vt 0.871940 0.573652
vt 0.871940 0.001148
vt 0.871940 0.000000
vt 0.871940 0.001413
vt 0.871940 0.004010
vt 0.871940 0.572857
vt 0.871940 0.577137
vt 0.871940 0.003741
vt 0.871940 0.005191
vn 0.484410 0.247785 -0.839017
vn 0.000000 1.000000 -0.000004
vn 0.830563 0.283234 -0.479525
vn 0.830561 0.283235 0.479527
vn 0.000000 0.283234 0.959051
vn 0.500003 0.000000 -0.866024
vn 0.500003 0.000000 -0.866024
vn 0.500003 0.000000 -0.866024
vn 0.500003 0.000000 -0.866024
vn 1.000000 0.000000 0.000000
vn 1.000000 0.000000 0.000000
vn 1.000000 0.000000 0.000000
vn 1.000000 0.000000 0.000000
vn 0.499998 0.000000 0.866027
vn 0.499998 0.000000 0.866027
vn 0.499998 0.000000 0.866027
vn 0.499998 0.000000 0.866027
vn -0.484410 0.247785 -0.839017
vn -0.830563 0.283234 -0.479525
vn -0.830561 0.283235 0.479527
vn -0.500003 0.000000 -0.866024
vn -0.500003 0.000000 -0.866024
vn -0.500003 0.000000 -0.866024
vn -0.500003 0.000000 -0.866024
vn -1.000000 0.000000 0.000000
vn -1.000000 0.000000 0.000000
vn -1.000000 0.000000 0.000000
vn -1.000000 0.000000 0.000000
vn -0.499998 0.000000 0.866027
vn -0.499998 0.000000 0.866027
vn -0.499998 0.000000 0.866027
vn -0.499998 0.000000 0.866027
vn 0.000000 -1.000000 0.000000
vn 0.000000 -1.000000 0.000000
vn 0.000000 -1.000000 0.000000
vn 0.000000 -1.000000 0.000000
vn 0.000000 -1.000000 0.000000
vn 0.000000 -1.000000 0.000000
vn 0.000000 -1.000000 0.000000
vn 0.000000 -1.000000 0.000000
s 1
g Antenna
usemtl aiStandardSurface1SG
f 6/1/1 5/2/2 7/3/3
f 7/3/3 5/2/2 8/4/4
f 8/4/4 5/2/2 9/5/5
s off
f 1/6/6 6/1/7 7/3/8 2/7/9
f 2/7/10 7/3/11 8/4/12 3/8/13
f 3/8/14 8/4/15 9/5/16 4/9/17
s 1
f 6/1/18 12/10/19 5/2/2
f 12/10/19 13/11/20 5/2/2
f 13/11/20 9/5/5 5/2/2
s off
f 1/6/21 10/12/22 12/10/23 6/1/24
f 10/12/25 11/13/26 13/11/27 12/10/28
f 11/13/29 4/9/30 9/5/31 13/11/32
f 1/6/33 2/7/34 3/8/35 4/9/36
f 10/12/37 1/6/38 4/9/39 11/13/40
